# xmcd
#
# Track frame offsets:
#	150
#	12819
#	24459
#	38637
#	51017
#	63566
#	74422
#	86484
#	98600
#	111565
#	124372
#	137387
#	150863
#	162392
#	174504
#	186738
#	200878
#	212263
#	225209
#	237240
#	248989
#	259307
#	271341
#	283188
#	293962
#
# Disc length: 4073 seconds
#
# Revision: 1
# Processed by: cddbd v1.5.2PL0 Copyright (c) Steve Scherf et al.
# Submitted via: audiograbber 1.83.01
#
DISCID=6a0fe719
DTITLE=Eddy Arnold - Complete US Chart Singles 1945-1962 - Disc 1
DYEAR=2014
DGENRE=Pop-Country
TTITLE0=Each Minute Seems A Million Years (Bluebird 33-0527) 1945
TTITLE1=All Alone In This World Without You (RCA 20-1855) 1946
TTITLE2=That's How Much I Love You (RCA 20-1948) 1946
TTITLE3=Chained To A Memory (RCA 20-1948) 1946
TTITLE4=What Is Life Without Love (RCA 20-2058A) 1946
TTITLE5=It's A Sin (RCA 20-2241) 1947
TTITLE6=I Couldn't Believe It Was True (RCA 20-2241) 1947
TTITLE7=I'll Hold You In My Heart (RCA 20-2332B) 1947
TTITLE8=To My Sorrow (RCA 20-2481A) 1947
TTITLE9=Molly Darling (RCA 20-2489) 1947
TTITLE10=Anytime (RCA 20-2700) 1948
TTITLE11=What A Fool I Was (RCA 20-2700) 1948
TTITLE12=Bouquet Of Roses (RCA 20-2806) 1948
TTITLE13=Texarkana Baby (RCA 20-2806) 1948
TTITLE14=Just A Little Lovin' (Will Go A Long Way) (RCA 20-3013) 1948
TTITLE15=My Daddy Is Only A Picture (RCA 20-3013) 1948
TTITLE16=A Heart Full Of Love (For A Handful Of Kisses) (RCA 20-3174) 1948
TTITLE17=Then I Turned And Walked Away Slowly (RCA 20-3174) 1948
TTITLE18=There's Not A Thing (I Wouldn't Do For You) (RCA 21-0002) 1949
TTITLE19=Don't Rob Another Man's Castle (RCA 21-0002) 1949
TTITLE20=One Kiss Too Many (RCA 21-0051) 1949
TTITLE21=The Echo Of Your Footsteps (RCA 21-0051) 1949
TTITLE22=I'm Throwing Rice (At The Girl That I Love) (RCA 21-0083) 1949
TTITLE23=Show Me The Way Back To Your Heart (RCA 21-0083) 1949
TTITLE24=There's No Wigs On My Angel (RCA 21-0134) 1949
EXTD=Disc 1 of 3
EXTT0=
EXTT1=
EXTT2=
EXTT3=
EXTT4=
EXTT5=
EXTT6=
EXTT7=
EXTT8=
EXTT9=
EXTT10=
EXTT11=
EXTT12=
EXTT13=
EXTT14=
EXTT15=
EXTT16=
EXTT17=
EXTT18=
EXTT19=
EXTT20=
EXTT21=
EXTT22=
EXTT23=
EXTT24=
PLAYORDER=
